HIERARCHY
ROOT Hips
{
	OFFSET 0.00000 0.00000 0.00000
	CHANNELS 6 Xposition Yposition Zposition Zrotation Yrotation Xrotation 
	JOINT LHipJoint
	{
		OFFSET 0 0 0
		CHANNELS 3 Zrotation Yrotation Xrotation
		JOINT LeftHip
		{
			OFFSET 2.36090 -1.39315 1.24752
			CHANNELS 3 Zrotation Yrotation Xrotation
			JOINT LeftKnee
			{
				OFFSET 2.06810 -5.68207 0.00000
				CHANNELS 3 Zrotation Yrotation Xrotation
				JOINT LeftAnkle
				{
					OFFSET 2.46631 -6.77613 0.00000
					CHANNELS 3 Zrotation Yrotation Xrotation
					JOINT LeftToe
					{
						OFFSET 0.26031 -0.71520 1.99545
						CHANNELS 3 Zrotation Yrotation Xrotation
						End Site
						{
							OFFSET 0.00000 -0.00000 1.05957
						}
					}
				}
			}
		}
	}
	JOINT RHipJoint
	{
		OFFSET 0 0 0
		CHANNELS 3 Zrotation Yrotation Xrotation
		JOINT RightHip
		{
			OFFSET -2.25243 -1.39315 1.24752
			CHANNELS 3 Zrotation Yrotation Xrotation
			JOINT RightKnee
			{
				OFFSET -2.17343 -5.97145 0.00000
				CHANNELS 3 Zrotation Yrotation Xrotation
				JOINT RightAnkle
				{
					OFFSET -2.52372 -6.93386 0.00000
					CHANNELS 3 Zrotation Yrotation Xrotation
					JOINT RightToe
					{
						OFFSET -0.22538 -0.61923 2.11447
						CHANNELS 3 Zrotation Yrotation Xrotation
						End Site
						{
							OFFSET -0.00000 -0.00000 1.10506
						}
					}
				}
			}
		}
	}
	JOINT lowerback
	{
		OFFSET 0 0 0
		CHANNELS 3 Zrotation Yrotation Xrotation
		JOINT Chest
		{
			OFFSET 0.01594 2.13103 0.08007
			CHANNELS 3 Zrotation Yrotation Xrotation
			JOINT Chest2
			{
				OFFSET 0.01393 2.09723 0.18338
				CHANNELS 3 Zrotation Yrotation Xrotation
				JOINT lowerneck
				{
					OFFSET 0 0 0
					CHANNELS 3 Zrotation Yrotation Xrotation
					JOINT Neck
					{
						OFFSET 0.05351 1.38915 0.32494
						CHANNELS 3 Zrotation Yrotation Xrotation
						JOINT Head
						{
							OFFSET 0.00711 1.45992 -0.21666
							CHANNELS 3 Zrotation Yrotation Xrotation
							End Site
							{
								OFFSET -0.00433 1.47702 -0.11056
							}
						}
					}
				}
				JOINT LeftCollar
				{
					OFFSET 0 0 0
					CHANNELS 3 Zrotation Yrotation Xrotation
					JOINT LeftShoulder
					{
						OFFSET 2.87198 0.92249 0.11132
CHANNELS 3 Zrotation Xrotation Yrotation
						JOINT LeftElbow
						{
OFFSET 0 -5.527310 0.000000
CHANNELS 3 Zrotation Xrotation Yrotation
							JOINT LeftWrist
							{
OFFSET 0 -3.110590 0.000000
CHANNELS 3 Zrotation Xrotation Yrotation
								JOINT lhand
								{
									OFFSET 0 0 0
CHANNELS 3 Zrotation Xrotation Yrotation
									JOINT LFingers
									{
OFFSET 0 -0.419630 0.000000
CHANNELS 3 Zrotation Xrotation Yrotation
										End Site
										{
OFFSET 0 -0.338310 0.000000
										}
									}
								}
								JOINT LThumb
								{
OFFSET 0 0.000000 0.000000
CHANNELS 3 Zrotation Xrotation Yrotation
									End Site
									{
OFFSET 0 -0.343480 0.343480
									}
								}
							}
						}
					}
				}
				JOINT RightCollar
				{
					OFFSET 0 0 0
					CHANNELS 3 Zrotation Yrotation Xrotation
					JOINT RightShoulder
					{
						OFFSET -2.94710 0.68072 0.32187
CHANNELS 3 Zrotation Xrotation Yrotation
						JOINT RightElbow
						{
OFFSET 0 -5.253960 -0.000000
CHANNELS 3 Zrotation Xrotation Yrotation
							JOINT RightWrist
							{
OFFSET 0 -3.105670 0.000000
CHANNELS 3 Zrotation Xrotation Yrotation
								JOINT rhand
								{
									OFFSET 0 0 0
CHANNELS 3 Zrotation Xrotation Yrotation
									JOINT RFingers
									{
OFFSET 0 -0.498680 0.000000
CHANNELS 3 Zrotation Xrotation Yrotation
										End Site
										{
OFFSET 0 -0.402040 0.000000
										}
									}
								}
								JOINT RThumb
								{
OFFSET 0 0.000000 0.000000
CHANNELS 3 Zrotation Xrotation Yrotation
									End Site
									{
OFFSET 0 -0.408180 0.408180
									}
								}
							}
						}
					}
				}
			}
		}
	}
}
MOTION
Frames: 8
Frame Time: 0.008333333333333333
-4.712600 14.904700 34.786600 175.401000 -0.914300 -160.300000 0.000000 0.000000 0.000000 -18.215300 -16.513300 -41.221900 4.246400 12.481300 37.456500 0.709300 -5.718300 -15.006300 0.591900 -4.925600 -13.696600 0.000000 0.000000 0.000000 16.116100 26.357500 -18.838400 -7.425900 -15.680300 50.467400 -1.228700 -0.060200 -20.988000 -2.861700 10.467800 -30.505200 -7.292900 -1.266400 -12.074200 -6.486300 -1.457400 -2.827100 -2.963000 -1.175400 3.756300 8.582800 5.310100 -14.385200 3.357000 5.438100 19.277400 0.405600 3.812900 8.567200 0.000000 0.000000 0.000000 25.231600 19.817300 3.250400 10.297100 -17.202900 1.561700 27.256000 -29.744500 -0.371400 0.000000 0.000000 0.000000 -7.125000 0.000000 0.000000 0.546600 30.397200 0.194900 0.000000 0.000000 0.000000 -3.899400 13.321900 39.959000 -17.373900 -27.348000 -4.257700 -14.030000 -1.830900 17.768400 0.000000 0.000000 0.000000 7.125000 0.000000 -0.000000 13.440600 47.794500 -0.942800
-4.763246 14.909476 34.665765 175.302691 -0.724263 -160.552295 0.000000 0.000000 0.000000 -18.754946 -16.648631 -39.985873 4.173465 12.387672 37.117600 0.785512 -5.379211 -15.796472 0.524546 -4.638017 -12.879465 0.000000 0.000000 0.000000 15.688720 25.670971 -21.278795 -8.561844 -16.510708 54.551805 -0.932373 1.253915 -17.838973 -2.715101 10.218236 -29.687101 -8.122597 -1.243579 -11.751049 -6.756155 -1.372776 -2.596408 -2.773216 -1.160564 3.824505 8.416364 5.161147 -15.006496 3.704760 5.115642 19.345282 0.530489 3.689608 8.681450 0.000000 0.000000 0.000000 25.527237 18.417276 6.041887 9.506120 -15.962861 1.336386 26.494582 -26.466394 -0.719042 0.000000 0.000000 0.000000 -7.125000 0.000000 0.000000 -0.061380 30.779528 -0.014175 0.000000 0.000000 0.000000 -3.595330 13.266575 38.835849 -17.411615 -27.397246 -4.275061 -14.141930 -1.360345 17.944292 0.000000 0.000000 0.000000 7.125000 0.000000 0.000000 13.396424 47.984615 -1.003330
-4.817555 14.911973 34.546005 175.334613 -0.516525 -160.622130 0.000000 0.000000 0.000000 -19.074919 -16.889372 -39.056682 4.127120 12.327685 36.901186 0.858053 -4.831234 -16.546468 0.462867 -4.364044 -12.103066 0.000000 0.000000 0.000000 15.311144 24.951172 -23.957656 -9.670952 -17.217952 58.378926 -0.584103 1.460293 -13.977156 -2.324209 9.504172 -27.391085 -8.734235 -1.161927 -11.508877 -6.941594 -1.264041 -2.605568 -2.606515 -1.128168 3.679511 8.016715 5.754783 -15.238601 4.091981 4.552792 19.419710 0.597373 2.976172 8.736540 0.000000 0.000000 0.000000 25.605469 17.585984 6.807106 9.251073 -15.559630 1.266578 26.341440 -22.086211 -3.099401 0.000000 0.000000 0.000000 -7.125000 0.000000 0.000000 -0.216874 33.439470 -0.066152 0.000000 0.000000 0.000000 -3.415675 13.591972 37.780390 -17.553333 -27.581449 -4.340449 -14.142868 -1.360980 18.052038 0.000000 0.000000 0.000000 7.125000 0.000000 0.000000 13.432342 48.091603 -1.042059
-4.871794 14.917474 34.426564 175.371053 -0.335956 -160.644439 0.000000 0.000000 0.000000 -19.384976 -17.111114 -38.201552 4.084381 12.271766 36.700425 0.925074 -4.342646 -17.237570 0.422076 -4.169468 -11.553911 0.000000 0.000000 0.000000 14.918142 24.423786 -26.636144 -10.764359 -17.813609 62.008624 -0.308452 1.086884 -10.095095 -1.682148 8.151532 -23.185600 -9.313481 -1.082161 -11.317387 -7.099870 -1.156180 -2.614364 -2.432907 -1.094651 3.560964 7.807322 5.683246 -15.506516 4.256047 4.237139 19.546719 0.646604 2.767914 8.816038 0.000000 0.000000 0.000000 25.626276 16.704981 7.140851 9.052855 -15.244662 1.214019 27.158120 -18.547720 -4.028771 0.000000 0.000000 0.000000 -7.125000 0.000000 0.000000 0.436181 34.513109 0.094568 0.000000 0.000000 0.000000 -3.278985 13.888415 36.798253 -17.729006 -27.808705 -4.422136 -14.097220 -1.556326 18.064660 0.000000 0.000000 0.000000 7.125000 0.000000 0.000000 13.479215 48.097600 -1.047865
-4.926184 14.925897 34.306985 175.407491 -0.190935 -160.608768 0.000000 0.000000 0.000000 -19.699133 -17.288228 -37.392351 4.025218 12.193849 36.421286 0.981835 -3.918612 -17.823541 0.393657 -4.028358 -11.156444 0.000000 0.000000 0.000000 14.520192 23.997391 -29.323864 -11.826346 -18.312964 65.433477 -0.135715 0.094511 -6.861717 -1.082735 6.594329 -18.526140 -9.847373 -1.008444 -11.158843 -7.222568 -1.059525 -2.646738 -2.249880 -1.063483 3.434438 7.621903 5.492433 -15.807730 4.322465 3.967430 19.710496 0.675520 2.642088 8.915567 0.000000 0.000000 0.000000 25.554506 15.844000 6.655099 8.990031 -15.144560 1.197477 25.738638 -16.894087 -2.646525 0.000000 0.000000 0.000000 -7.125000 0.000000 0.000000 -0.696300 32.916705 -0.206210 0.000000 0.000000 0.000000 -3.198217 14.188064 35.916018 -17.951131 -28.094411 -4.526217 -14.003010 -1.950139 18.124677 0.000000 0.000000 0.000000 7.125000 0.000000 0.000000 13.587809 48.143707 -1.072291
-4.979369 14.937870 34.187981 175.414569 -0.127193 -160.516855 0.000000 0.000000 0.000000 -20.041970 -17.402539 -36.637175 3.950433 12.094094 36.065806 1.027886 -3.637094 -18.289980 0.378072 -3.949152 -10.933567 0.000000 0.000000 0.000000 14.120422 23.610473 -31.997757 -12.832185 -18.718763 68.601539 -0.052109 -1.181923 -4.920891 -0.692583 5.314152 -14.808173 -10.352955 -0.962182 -11.008163 -7.312785 -1.004943 -2.704128 -2.054333 -1.049767 3.286062 7.568173 5.290264 -16.222377 4.164135 3.689521 19.978819 0.610536 2.505351 9.080100 0.000000 0.000000 0.000000 25.402086 14.982501 5.358967 9.045308 -15.232591 1.212000 25.446500 -15.584578 -2.135135 0.000000 0.000000 0.000000 -7.125000 0.000000 0.000000 -0.919519 32.343285 -0.285358 0.000000 0.000000 0.000000 -3.177310 14.486014 35.204089 -18.217363 -28.434491 -4.652281 -13.860828 -2.508347 18.284560 0.000000 0.000000 0.000000 7.125000 0.000000 0.000000 13.776315 48.281857 -1.135417
-5.030716 14.952868 34.068552 175.389015 -0.160368 -160.387314 0.000000 0.000000 0.000000 -20.424605 -17.422119 -35.907773 3.855182 11.965048 35.608540 1.063924 -3.538435 -18.634621 0.372539 -3.920343 -10.852653 0.000000 0.000000 0.000000 13.743271 23.213702 -34.614581 -13.757538 -19.036288 71.460461 -0.016873 -2.415364 -4.451811 -0.509428 4.571383 -12.690699 -10.823554 -0.953984 -10.856738 -7.388480 -1.006552 -2.766135 -1.871224 -1.061603 3.133877 7.489391 5.077869 -16.612222 3.996167 3.415516 20.209499 0.543996 2.367122 9.226576 0.000000 0.000000 0.000000 25.213134 14.095590 3.339218 9.212221 -15.497917 1.256288 25.236725 -15.601755 -1.192381 0.000000 0.000000 0.000000 -7.125000 0.000000 0.000000 -1.066689 31.296839 -0.357497 0.000000 0.000000 0.000000 -3.187881 14.745457 34.723579 -18.512931 -28.808809 -4.793962 -13.692163 -3.177808 18.518858 0.000000 0.000000 0.000000 7.125000 0.000000 0.000000 14.017142 48.489182 -1.228883
-5.080151 14.970802 33.946701 175.351826 -0.280596 -160.229402 0.000000 0.000000 0.000000 -20.822552 -17.353012 -35.184278 3.741222 11.807768 35.055524 1.091733 -3.600676 -18.876916 0.375902 -3.937588 -10.901268 0.000000 0.000000 0.000000 13.399984 22.808781 -37.183255 -14.588025 -19.282379 73.992097 0.000914 -3.499067 -4.956046 -0.417708 4.147872 -11.493198 -10.422340 0.029291 -10.588531 -7.948876 0.133196 -3.071553 -2.520220 -0.503250 2.609242 5.722450 3.818491 -16.124088 5.082313 1.955374 19.945811 0.994222 1.649184 8.977242 0.000000 0.000000 0.000000 26.001730 12.494895 -1.790802 9.346943 -15.711472 1.292464 25.320608 -16.418241 -0.248744 0.000000 0.000000 0.000000 -7.125000 0.000000 0.000000 -0.984071 30.254182 -0.354176 0.000000 0.000000 0.000000 -2.130069 16.061916 31.718916 -18.990972 -29.407420 -5.026450 -13.527517 -3.781721 18.728249 0.000000 0.000000 0.000000 7.125000 0.000000 0.000000 14.246750 48.671882 -1.314875
